<?xml version="1.0" encoding="UTF-8" standalone="no"?>
<!-- Created with Inkscape (http://www.inkscape.org/) -->

<svg
   width="512"
   height="512"
   viewBox="0 0 512 512"
   version="1.1"
   id="svg1"
   sodipodi:docname="logo.svg"
   inkscape:version="1.4.2 (f4327f4, 2025-05-13)"
   xmlns:inkscape="http://www.inkscape.org/namespaces/inkscape"
   xmlns:sodipodi="http://sodipodi.sourceforge.net/DTD/sodipodi-0.dtd"
   xmlns:xlink="http://www.w3.org/1999/xlink"
   xmlns="http://www.w3.org/2000/svg"
   xmlns:svg="http://www.w3.org/2000/svg">
  <sodipodi:namedview
     id="namedview1"
     pagecolor="#505050"
     bordercolor="#ffffff"
     borderopacity="1"
     inkscape:showpageshadow="0"
     inkscape:pageopacity="0"
     inkscape:pagecheckerboard="1"
     inkscape:deskcolor="#d1d1d1"
     inkscape:zoom="3.5527344"
     inkscape:cx="256.14074"
     inkscape:cy="232.63771"
     inkscape:window-width="3840"
     inkscape:window-height="2054"
     inkscape:window-x="-11"
     inkscape:window-y="-8"
     inkscape:window-maximized="1"
     inkscape:current-layer="svg1" />
  <defs
     id="defs1">
    <linearGradient
       id="linearGradient2">
      <stop
         style="stop-color:#023e7d;stop-opacity:1;"
         offset="0"
         id="stop1" />
      <stop
         style="stop-color:#0353a4;stop-opacity:1;"
         offset="0.59037328"
         id="stop2" />
    </linearGradient>
    <linearGradient
       id="linearGradient38">
      <stop
         style="stop-color:#cc1900;stop-opacity:1;"
         offset="0"
         id="stop39" />
      <stop
         style="stop-color:#e76e00;stop-opacity:1;"
         offset="0.59037328"
         id="stop38" />
    </linearGradient>
    <rect
       x="27.302914"
       y="40.250687"
       width="698.8983"
       height="560.69488"
       id="rect1" />
    <linearGradient
       xlink:href="#linearGradient2"
       id="linearGradient39"
       x1="376.71924"
       y1="208.99609"
       x2="376.71924"
       y2="462.39453"
       gradientUnits="userSpaceOnUse"
       gradientTransform="matrix(1.3032241,0,0,1.3032241,-234.40763,-128.21749)" />
    <linearGradient
       xlink:href="#linearGradient38"
       id="linearGradient18"
       gradientUnits="userSpaceOnUse"
       x1="376.71924"
       y1="208.99609"
       x2="376.71924"
       y2="462.39453"
       gradientTransform="matrix(1.3032241,0,0,1.3032241,-234.40763,-128.21749)" />
  </defs>
  <path
     id="path17"
     style="font-weight:900;font-size:490px;line-height:1.25;font-family:Roboto;-inkscape-font-specification:'Roboto Heavy';text-align:center;text-anchor:middle;white-space:pre;fill:#0466c8;fill-opacity:1;stroke-width:1.30322"
     d="m 91.966797,354.06641 a 9.3301707,9.3301707 0 0 0 -8.757813,6.11718 l -14.035156,38.26758 a 4.5508092,4.5508092 0 0 0 4.273438,6.11524 h 99.181644 a 9.0580213,9.0580213 0 0 0 8.65429,-6.38282 h 56.41602 17.8125 0.48828 0.48828 17.8125 56.41602 a 9.0580213,9.0580213 0 0 0 8.65429,6.38282 h 99.18164 a 4.5508092,4.5508092 0 0 0 4.27344,-6.11524 l -14.03515,-38.26758 a 9.3301707,9.3301707 0 0 0 -8.75782,-6.11718 H 274.30078 256.48828 256 h -0.48828 -17.8125 z m -21.095703,66.79101 a 9.3537216,9.3537216 0 0 0 -8.773438,6.11133 l -3.986328,10.79297 a 0.02549385,0.02549385 0 0 1 0.002,0 0.02549385,0.02549385 0 0 1 0.002,0 0.02549385,0.02549385 0 0 1 0,0.002 0.02549385,0.02549385 0 0 1 0.002,0.002 0.02549385,0.02549385 0 0 1 0.002,0.002 0.02549385,0.02549385 0 0 1 0.002,0.002 0.02549385,0.02549385 0 0 1 0.002,0.002 0.02549385,0.02549385 0 0 1 0,0.002 0.02549385,0.02549385 0 0 1 0.002,0.002 0.02549385,0.02549385 0 0 1 0.002,0 0.02549385,0.02549385 0 0 1 0,0.004 0.02549385,0.02549385 0 0 1 0,0.002 0.02549385,0.02549385 0 0 1 0,0.006 0.02549385,0.02549385 0 0 1 0,0.002 0.02549385,0.02549385 0 0 1 -0.002,0.006 0.02549385,0.02549385 0 0 1 -0.002,0.004 0.02549385,0.02549385 0 0 1 0,0.002 0.02549385,0.02549385 0 0 1 0,0.002 0.02549385,0.02549385 0 0 1 -0.002,0.002 0.02549385,0.02549385 0 0 1 -0.002,0 0.02549385,0.02549385 0 0 1 0,0.002 0.02549385,0.02549385 0 0 1 -0.002,0.002 0.02549385,0.02549385 0 0 1 -0.002,0.002 0.02549385,0.02549385 0 0 1 0,0.002 0.02549385,0.02549385 0 0 1 -0.002,0 0.02549385,0.02549385 0 0 1 -0.002,0 0.02549385,0.02549385 0 0 1 -0.0059,0.002 0.02549385,0.02549385 0 0 1 -0.002,0.002 0.02549385,0.02549385 0 0 1 -0.0059,0 0.02549385,0.02549385 0 0 1 -0.002,0 0.02549385,0.02549385 0 0 1 -0.002,-0.002 0.02549385,0.02549385 0 0 1 -0.002,-0.002 l -5.867188,16.0293 a 20727.697,20727.697 0 0 1 -4.484375,12.23437 l -3.96289,10.8086 A 4.5506563,4.5506563 0 0 0 48.050781,483 H 151.94531 a 8.831668,8.831668 0 0 0 8.4375,-6.22656 l 3.27149,-10.58789 a 371.2474,371.2474 0 0 1 4.0625,-12.38086 l 1.38281,-3.98047 a 411.07428,411.07428 0 0 0 4.08203,-12.37305 l 3.24024,-10.37109 a 4.7905926,4.7905926 0 0 0 -4.57227,-6.2168 z m 370.257816,0 -100.98047,0.006 a 4.7905926,4.7905926 0 0 0 -4.57032,6.21875 l 3.24024,10.36914 a 411.07428,411.07428 0 0 0 4.08203,12.37305 l 1.38281,3.98047 a 371.2474,371.2474 0 0 1 4.0625,12.38086 l 3.27149,10.58984 A 8.831668,8.831668 0 0 0 360.05469,483 h 103.89453 a 4.5506563,4.5506563 0 0 0 4.27344,-6.11523 l -3.96289,-10.8086 a 20727.697,20727.697 0 0 1 -4.48438,-12.23437 l -5.86719,-16.0293 a 0.02549385,0.02549385 0 0 0 -0.002,0.002 0.02549385,0.02549385 0 0 0 -0.002,0.002 0.02549385,0.02549385 0 0 0 -0.002,0 0.02549385,0.02549385 0 0 1 -0.006,0 0.02549385,0.02549385 0 0 1 -0.006,-0.002 0.02549385,0.02549385 0 0 0 -0.002,-0.002 0.02549385,0.02549385 0 0 0 -0.002,0 0.02549385,0.02549385 0 0 0 -0.002,0 0.02549385,0.02549385 0 0 0 -0.002,-0.002 0.02549385,0.02549385 0 0 0 -0.002,-0.002 0.02549385,0.02549385 0 0 0 -0.002,-0.002 0.02549385,0.02549385 0 0 0 0,-0.002 0.02549385,0.02549385 0 0 0 -0.002,0 0.02549385,0.02549385 0 0 0 -0.002,-0.002 0.02549385,0.02549385 0 0 0 -0.002,-0.002 0.02549385,0.02549385 0 0 0 0,-0.002 0.02549385,0.02549385 0 0 1 0,-0.004 0.02549385,0.02549385 0 0 0 -0.002,-0.002 0.02549385,0.02549385 0 0 0 0,-0.002 0.02549385,0.02549385 0 0 1 0,-0.004 0.02549385,0.02549385 0 0 1 0,-0.006 0.02549385,0.02549385 0 0 0 0,-0.002 0.02549385,0.02549385 0 0 1 0,-0.004 0.02549385,0.02549385 0 0 0 0.002,0 0.02549385,0.02549385 0 0 0 0,-0.002 0.02549385,0.02549385 0 0 0 0.002,-0.002 0.02549385,0.02549385 0 0 0 0.002,-0.002 0.02549385,0.02549385 0 0 0 0.002,-0.002 0.02549385,0.02549385 0 0 0 0.002,-0.002 0.02549385,0.02549385 0 0 0 0.002,-0.002 0.02549385,0.02549385 0 0 0 0.002,-0.002 0.02549385,0.02549385 0 0 0 0.002,0 0.02549385,0.02549385 0 0 0 0.002,0 l -3.98633,-10.79297 a 9.3537216,9.3537216 0 0 0 -8.77343,-6.11133 z" />
  <path
     id="path6"
     style="font-weight:900;font-size:490px;line-height:1.25;font-family:Roboto;-inkscape-font-specification:'Roboto Heavy';text-align:center;text-anchor:middle;white-space:pre;fill:url(#linearGradient18);fill-opacity:1;stroke-width:1.30322"
     d="m 256.27214,313.68492 v 24.09184 h 0.26982 v -24.09184 z" />
  <path
     id="path4"
     style="font-weight:900;font-size:490px;line-height:1.25;font-family:Roboto;-inkscape-font-specification:'Roboto Heavy';text-align:center;text-anchor:middle;white-space:pre;fill:url(#linearGradient39);fill-opacity:1;stroke-width:1.30322"
     d="m 141.44843,215.5995 a 7.4640295,7.4640295 0 0 0 -7.00737,4.89472 l -2.38501,6.50085 a 75436.72,75436.72 0 0 1 -3.58894,9.78945 l -2.38756,6.50085 a 75436.72,75436.72 0 0 0 -3.58895,9.78946 l -2.38501,6.50084 -5.97395,16.2903 a 229820.23,229820.23 0 0 1 -3.58896,9.78946 l -14.335466,39.08145 a 113156.99,113156.99 0 0 1 -3.588962,9.78945 3.1530385,3.1530385 0 0 0 4.01913,3.25043 h 157.417758 2.217 0.26982 3.50242 156.13234 a 3.1530385,3.1530385 0 0 0 4.01913,-3.25043 113156.99,113156.99 0 0 1 -3.58896,-9.78945 l -14.33546,-39.08145 a 229820.23,229820.23 0 0 1 -3.58895,-9.78946 l -5.97397,-16.2903 -2.385,-6.50084 a 75436.72,75436.72 0 0 0 -3.58895,-9.78946 l -2.38755,-6.50085 a 75436.72,75436.72 0 0 1 -3.58896,-9.78945 l -2.385,-6.50085 a 7.4640295,7.4640295 0 0 0 -7.00737,-4.89472 h -91.11369 a 3.8456488,3.8456488 0 0 0 -3.67551,4.98127 l 5.03218,16.2903 5.03218,16.2903 5.03217,16.2903 1.95738,6.32777 a 505615.95,505615.95 0 0 0 3.0748,9.96254 l 7.09391,22.96168 a 3.8455658,3.8455658 0 0 1 -3.67294,4.98126 h -40.08178 -3.50242 -0.26982 -2.217 -41.36718 a 3.8455658,3.8455658 0 0 1 -3.67295,-4.98126 l 7.09392,-22.96168 a 505615.95,505615.95 0 0 0 3.07478,-9.96254 l 1.95738,-6.32777 5.03218,-16.2903 5.03218,-16.2903 5.03218,-16.2903 a 3.8456488,3.8456488 0 0 0 -3.6755,-4.98127 z" />
  <path
     id="path7"
     style="font-weight:900;font-size:490px;line-height:1.25;font-family:Roboto;-inkscape-font-specification:'Roboto Heavy';text-align:center;text-anchor:middle;white-space:pre;fill:#023e7d;fill-opacity:1;stroke-width:1.30322"
     d="m 178.20852,119.48672 c -3.91538,2.6e-4 -7.41639,2.43888 -8.77386,6.11142 l -6.01977,16.2903 -1.50176,4.06748 c 0,0 -4.51801,12.22282 -4.51801,12.22282 l -12.93806,35.01905 c -1.09421,2.96301 1.09723,6.10995 4.25583,6.1114 h 60.96901 26.9808 0.013 a 8.0864539,8.0864539 0 0 0 7.27758,-6.53166 l 8.16468,-29.25534 a 4.3166099,4.3166099 0 0 1 8.31051,-0.0176 l 8.28822,29.21839 a 8.3862386,8.3862386 0 0 0 7.67425,6.58624 h 31.43265 56.14298 c 3.16316,5.6e-4 5.36203,-3.14647 4.27367,-6.1165 l -12.83879,-35.00887 c 0,0 -4.48747,-12.233 -4.48747,-12.233 l -1.48904,-4.0573 c 0,0 -4.48747,-12.233 -4.48747,-12.233 l -1.48649,-4.0573 c -1.34819,-3.67478 -4.84684,-6.11734 -8.76113,-6.1165 z" />
  <path
     id="path15"
     style="font-weight:900;font-size:490px;line-height:1.25;font-family:Roboto;-inkscape-font-specification:'Roboto Heavy';text-align:center;text-anchor:middle;white-space:pre;fill:#023e7d;fill-opacity:1;stroke-width:1.30322"
     d="m 212.48688,29.004273 a 11.225238,11.225238 0 0 0 -10.53016,7.335732 l -9.35165,25.311062 a 469010.48,469010.48 0 0 1 -5.42162,14.671449 l -0.59815,1.618852 a 250913.42,250913.42 0 0 0 -5.42162,14.671449 l -1.19887,3.247882 a 5.4470151,5.4470151 0 0 0 5.10854,7.335721 h 70.93918 0.20871 13.03988 57.8993 a 5.4470151,5.4470151 0 0 0 5.10853,-7.335721 l -1.19886,-3.247882 a 250913.42,250913.42 0 0 0 -5.42162,-14.671449 l -0.59815,-1.618852 A 469010.48,469010.48 0 0 1 319.6287,61.651067 l -9.35165,-25.311062 a 11.225238,11.225238 0 0 0 -10.53016,-7.335732 h -30.48577 -13.14424 z" />
  <path
     style="fill:none;stroke:none;stroke-width:1.30322px;stroke-linecap:butt;stroke-linejoin:miter;stroke-opacity:1"
     d="m 177.46019,103.19642 -5.97397,16.2903 h 169.51332 l -6.01978,-16.2903 z"
     id="path1" />
  <path
     style="fill:none;stroke:none;stroke-width:1.30322px;stroke-linecap:butt;stroke-linejoin:miter;stroke-opacity:1"
     d="m 142.2095,199.3092 -5.97396,16.2903 h 101.53949 l 5.03216,-16.2903 z"
     id="path2" />
  <path
     style="fill:none;stroke:none;stroke-width:1.30322px;stroke-linecap:butt;stroke-linejoin:miter;stroke-opacity:1"
     d="m 345.47682,443.66372 5.09072,16.2903 h 116.23639 l -6.01723,-16.2903 z"
     id="path5" />
</svg>
