<?xml version="1.0" encoding="UTF-8" standalone="no"?>
<!-- Created with Inkscape (http://www.inkscape.org/) -->

<svg
   width="512"
   height="512"
   viewBox="0 0 512 512"
   version="1.1"
   id="svg1"
   sodipodi:docname="logo2.svg"
   inkscape:version="1.4.2 (f4327f4, 2025-05-13)"
   xmlns:inkscape="http://www.inkscape.org/namespaces/inkscape"
   xmlns:sodipodi="http://sodipodi.sourceforge.net/DTD/sodipodi-0.dtd"
   xmlns:xlink="http://www.w3.org/1999/xlink"
   xmlns="http://www.w3.org/2000/svg"
   xmlns:svg="http://www.w3.org/2000/svg">
  <sodipodi:namedview
     id="namedview1"
     pagecolor="#505050"
     bordercolor="#ffffff"
     borderopacity="1"
     inkscape:showpageshadow="0"
     inkscape:pageopacity="0"
     inkscape:pagecheckerboard="1"
     inkscape:deskcolor="#d1d1d1"
     inkscape:zoom="2.5121626"
     inkscape:cx="188.28399"
     inkscape:cy="259.33831"
     inkscape:window-width="3840"
     inkscape:window-height="2054"
     inkscape:window-x="-11"
     inkscape:window-y="-8"
     inkscape:window-maximized="1"
     inkscape:current-layer="svg1" />
  <defs
     id="defs1">
    <linearGradient
       id="linearGradient4">
      <stop
         style="stop-color:#023e7d;stop-opacity:1;"
         offset="0"
         id="stop3" />
      <stop
         style="stop-color:#0353a4;stop-opacity:1;"
         offset="0.59037328"
         id="stop4" />
    </linearGradient>
    <linearGradient
       id="linearGradient38">
      <stop
         style="stop-color:#cc1900;stop-opacity:1;"
         offset="0"
         id="stop39" />
      <stop
         style="stop-color:#e76e00;stop-opacity:1;"
         offset="0.59037328"
         id="stop38" />
    </linearGradient>
    <rect
       x="27.302914"
       y="40.250687"
       width="698.8983"
       height="560.69488"
       id="rect1" />
    <linearGradient
       xlink:href="#linearGradient4"
       id="linearGradient39"
       x1="376.71924"
       y1="208.99609"
       x2="376.71924"
       y2="462.39453"
       gradientUnits="userSpaceOnUse"
       gradientTransform="matrix(1.3032241,0,0,1.3032241,-234.40763,-138.72871)" />
    <linearGradient
       xlink:href="#linearGradient38"
       id="linearGradient18"
       gradientUnits="userSpaceOnUse"
       x1="376.71924"
       y1="208.99609"
       x2="376.71924"
       y2="462.39453"
       gradientTransform="matrix(1.3032241,0,0,1.3032241,-234.40763,-141.72821)" />
  </defs>
  <path
     id="path17"
     style="font-weight:900;font-size:490px;line-height:1.25;font-family:Roboto;-inkscape-font-specification:'Roboto Heavy';text-align:center;text-anchor:middle;white-space:pre;fill:#0466c8;fill-opacity:1;stroke-width:1.30322"
     d="M 70.871094 413.25 A 9.3537216 9.3537216 0 0 0 62.097656 419.36133 L 58.111328 430.1543 A 0.02549385 0.02549385 0 0 1 58.113281 430.1543 A 0.02549385 0.02549385 0 0 1 58.115234 430.1543 A 0.02549385 0.02549385 0 0 1 58.115234 430.15625 A 0.02549385 0.02549385 0 0 1 58.117188 430.1582 A 0.02549385 0.02549385 0 0 1 58.119141 430.16016 A 0.02549385 0.02549385 0 0 1 58.121094 430.16211 A 0.02549385 0.02549385 0 0 1 58.123047 430.16406 A 0.02549385 0.02549385 0 0 1 58.123047 430.16602 A 0.02549385 0.02549385 0 0 1 58.125 430.16797 A 0.02549385 0.02549385 0 0 1 58.126953 430.16797 A 0.02549385 0.02549385 0 0 1 58.126953 430.16992 A 0.02549385 0.02549385 0 0 1 58.126953 430.17188 A 0.02549385 0.02549385 0 0 1 58.126953 430.17383 A 0.02549385 0.02549385 0 0 1 58.126953 430.17969 A 0.02549385 0.02549385 0 0 1 58.126953 430.18164 A 0.02549385 0.02549385 0 0 1 58.125 430.1875 A 0.02549385 0.02549385 0 0 1 58.125 430.18945 A 0.02549385 0.02549385 0 0 1 58.123047 430.19141 A 0.02549385 0.02549385 0 0 1 58.123047 430.19336 A 0.02549385 0.02549385 0 0 1 58.123047 430.19531 A 0.02549385 0.02549385 0 0 1 58.121094 430.19727 A 0.02549385 0.02549385 0 0 1 58.119141 430.19727 A 0.02549385 0.02549385 0 0 1 58.119141 430.20117 A 0.02549385 0.02549385 0 0 1 58.117188 430.20312 A 0.02549385 0.02549385 0 0 1 58.115234 430.20508 A 0.02549385 0.02549385 0 0 1 58.115234 430.20703 A 0.02549385 0.02549385 0 0 1 58.113281 430.20703 A 0.02549385 0.02549385 0 0 1 58.111328 430.20703 A 0.02549385 0.02549385 0 0 1 58.109375 430.20703 A 0.02549385 0.02549385 0 0 1 58.105469 430.20898 A 0.02549385 0.02549385 0 0 1 58.103516 430.21094 A 0.02549385 0.02549385 0 0 1 58.097656 430.21094 A 0.02549385 0.02549385 0 0 1 58.095703 430.21094 A 0.02549385 0.02549385 0 0 1 58.09375 430.20898 A 0.02549385 0.02549385 0 0 1 58.091797 430.20703 L 52.224609 446.23633 A 20727.697 20727.697 0 0 1 47.740234 458.4707 L 43.777344 469.2793 A 4.5506563 4.5506563 0 0 0 48.050781 475.39258 L 151.94531 475.39258 A 8.831668 8.831668 0 0 0 160.38281 469.16602 L 163.6543 458.57812 A 371.2474 371.2474 0 0 1 167.7168 446.19727 L 169.09961 442.2168 A 411.07428 411.07428 0 0 0 173.18164 429.84375 L 176.42188 419.47266 A 4.7905926 4.7905926 0 0 0 171.84961 413.25586 L 70.871094 413.25 z " />
  <path
     id="path6"
     style="font-weight:900;font-size:490px;line-height:1.25;font-family:Roboto;-inkscape-font-specification:'Roboto Heavy';text-align:center;text-anchor:middle;white-space:pre;fill:#0466c8;fill-opacity:1;stroke-width:1.30322"
     d="M 441.12891 413.24805 L 441.12891 413.25 L 340.14844 413.25586 A 4.7905926 4.7905926 0 0 0 335.57812 419.47461 L 338.81836 429.84375 A 411.07428 411.07428 0 0 0 342.90039 442.2168 L 344.2832 446.19727 A 371.2474 371.2474 0 0 1 348.3457 458.57812 L 351.61719 469.16797 A 8.831668 8.831668 0 0 0 360.05469 475.39258 L 463.94922 475.39258 A 4.5506563 4.5506563 0 0 0 468.22266 469.27734 L 464.25977 458.46875 A 20727.697 20727.697 0 0 1 459.77539 446.23438 L 453.9082 430.20508 A 0.02549385 0.02549385 0 0 0 453.90625 430.20703 A 0.02549385 0.02549385 0 0 0 453.9043 430.20898 A 0.02549385 0.02549385 0 0 0 453.90234 430.20898 A 0.02549385 0.02549385 0 0 1 453.89648 430.20898 A 0.02549385 0.02549385 0 0 1 453.89062 430.20703 A 0.02549385 0.02549385 0 0 0 453.88867 430.20508 A 0.02549385 0.02549385 0 0 0 453.88672 430.20508 A 0.02549385 0.02549385 0 0 0 453.88477 430.20508 A 0.02549385 0.02549385 0 0 0 453.88281 430.20312 A 0.02549385 0.02549385 0 0 0 453.88086 430.20117 A 0.02549385 0.02549385 0 0 0 453.87891 430.19922 A 0.02549385 0.02549385 0 0 0 453.87891 430.19727 A 0.02549385 0.02549385 0 0 0 453.87695 430.19727 A 0.02549385 0.02549385 0 0 0 453.875 430.19531 A 0.02549385 0.02549385 0 0 0 453.87305 430.19336 A 0.02549385 0.02549385 0 0 0 453.87305 430.19141 A 0.02549385 0.02549385 0 0 1 453.87305 430.18945 A 0.02549385 0.02549385 0 0 1 453.87305 430.1875 A 0.02549385 0.02549385 0 0 0 453.87109 430.18555 A 0.02549385 0.02549385 0 0 0 453.87109 430.18359 A 0.02549385 0.02549385 0 0 1 453.87109 430.18164 A 0.02549385 0.02549385 0 0 1 453.87109 430.17969 A 0.02549385 0.02549385 0 0 1 453.87109 430.17383 A 0.02549385 0.02549385 0 0 0 453.87109 430.17188 A 0.02549385 0.02549385 0 0 1 453.87109 430.16992 A 0.02549385 0.02549385 0 0 1 453.87109 430.16797 A 0.02549385 0.02549385 0 0 0 453.87305 430.16797 A 0.02549385 0.02549385 0 0 0 453.87305 430.16406 A 0.02549385 0.02549385 0 0 0 453.875 430.16211 A 0.02549385 0.02549385 0 0 0 453.87695 430.16016 A 0.02549385 0.02549385 0 0 0 453.87891 430.1582 A 0.02549385 0.02549385 0 0 0 453.88086 430.15625 A 0.02549385 0.02549385 0 0 0 453.88281 430.1543 A 0.02549385 0.02549385 0 0 0 453.88477 430.15234 A 0.02549385 0.02549385 0 0 0 453.88672 430.15234 A 0.02549385 0.02549385 0 0 0 453.88867 430.15234 L 449.90234 419.35938 A 9.3537216 9.3537216 0 0 0 441.12891 413.24805 z " />
  <path
     id="path3"
     style="font-weight:900;font-size:490px;line-height:1.25;font-family:Roboto;-inkscape-font-specification:'Roboto Heavy';text-align:center;text-anchor:middle;white-space:pre;fill:#0353a4;fill-opacity:1;stroke-width:1.30322"
     d="M 91.966797 346.45898 A 9.3301707 9.3301707 0 0 0 83.208984 352.57617 L 69.173828 390.84375 A 4.5508092 4.5508092 0 0 0 73.447266 396.95898 L 172.62891 396.95898 A 9.0580213 9.0580213 0 0 0 181.2832 390.57617 L 237.69922 390.57617 L 255.51172 390.57617 L 256 390.57617 L 256.48828 390.57617 L 274.30078 390.57617 L 330.7168 390.57617 A 9.0580213 9.0580213 0 0 0 339.37109 396.95898 L 438.55273 396.95898 A 4.5508092 4.5508092 0 0 0 442.82617 390.84375 L 428.79102 352.57617 A 9.3301707 9.3301707 0 0 0 420.0332 346.45898 L 274.30078 346.45898 L 256.48828 346.45898 L 256 346.45898 L 255.51172 346.45898 L 237.69922 346.45898 L 91.966797 346.45898 z " />
  <path
     id="path4"
     style="font-weight:900;font-size:490px;line-height:1.25;font-family:Roboto;-inkscape-font-specification:'Roboto Heavy';text-align:center;text-anchor:middle;white-space:pre;fill:url(#linearGradient39);fill-opacity:1;stroke-width:1.30322"
     d="M 141.44922 205.08789 A 7.4640295 7.4640295 0 0 0 134.44141 209.98242 L 132.05664 216.48438 A 75436.72 75436.72 0 0 1 128.4668 226.27344 L 126.08008 232.77344 A 75436.72 75436.72 0 0 0 122.49023 242.56445 L 120.10547 249.06445 L 114.13086 265.35547 A 229820.23 229820.23 0 0 1 110.54297 275.14453 L 96.207031 314.22656 A 113156.99 113156.99 0 0 1 92.619141 324.01562 A 3.1530385 3.1530385 0 0 0 92.615234 324.40625 L 69.173828 390.84375 L 442.82617 390.84375 L 420.19531 324.01562 A 113156.99 113156.99 0 0 1 416.60742 314.22656 L 402.27148 275.14453 A 229820.23 229820.23 0 0 1 398.68164 265.35547 L 392.70898 249.06445 L 390.32422 242.56445 A 75436.72 75436.72 0 0 0 386.73438 232.77344 L 384.34766 226.27344 A 75436.72 75436.72 0 0 1 380.75781 216.48438 L 378.37305 209.98242 A 7.4640295 7.4640295 0 0 0 371.36523 205.08789 L 280.25195 205.08789 A 3.8456488 3.8456488 0 0 0 276.57617 210.07031 L 281.60938 226.35938 L 286.64062 242.65039 L 291.67383 258.94141 L 293.63086 265.26758 A 505615.95 505615.95 0 0 0 296.70508 275.23047 L 303.79883 298.19336 A 3.8455658 3.8455658 0 0 1 300.12695 303.17383 L 260.04492 303.17383 L 256.54102 303.17383 L 256.27148 303.17383 L 254.05469 303.17383 L 212.6875 303.17383 A 3.8455658 3.8455658 0 0 1 209.01562 298.19336 L 216.10938 275.23047 A 505615.95 505615.95 0 0 0 219.18359 265.26758 L 221.14062 258.94141 L 226.17383 242.65039 L 231.20508 226.35938 L 236.23828 210.07031 A 3.8456488 3.8456488 0 0 0 232.5625 205.08789 L 141.44922 205.08789 z " />
  <path
     id="path7"
     style="font-weight:900;font-size:490px;line-height:1.25;font-family:Roboto;-inkscape-font-specification:'Roboto Heavy';text-align:center;text-anchor:middle;white-space:pre;fill:#023e7d;fill-opacity:1;stroke-width:1.25479"
     d="m 178.20852,108.97628 c -3.91538,2.4e-4 -7.41639,2.26098 -8.77386,5.66563 l -6.01977,15.10204 -1.50176,3.77078 c 0,0 -4.51801,11.33125 -4.51801,11.33125 l -12.93806,32.46466 c -1.09421,2.74688 1.09723,5.66427 4.25583,5.66561 h 60.96901 26.9808 0.013 a 8.0864539,7.4966029 0 0 0 7.27758,-6.05522 l 8.16468,-27.12136 a 4.3166099,4.001743 0 0 1 8.31051,-0.0163 l 8.28822,27.08711 a 8.3862386,7.7745204 0 0 0 7.67425,6.10582 h 31.43265 56.14298 c 3.16316,5.2e-4 5.36203,-2.91696 4.27367,-5.67034 l -12.83879,-32.45522 c 0,0 -4.48747,-11.34069 -4.48747,-11.34069 l -1.48904,-3.76134 c 0,0 -4.48747,-11.34069 -4.48747,-11.34069 l -1.48649,-3.76135 c -1.34819,-3.40673 -4.84684,-5.67112 -8.76113,-5.67034 z" />
  <path
     id="path15"
     style="font-weight:900;font-size:490px;line-height:1.25;font-family:Roboto;-inkscape-font-specification:'Roboto Heavy';text-align:center;text-anchor:middle;white-space:pre;fill:#023e7d;fill-opacity:1;stroke-width:1.30322"
     d="m 212.48688,15.493553 a 11.225238,11.225238 0 0 0 -10.53016,7.335732 l -9.35165,25.311062 a 469010.48,469010.48 0 0 1 -5.42162,14.671449 l -0.59815,1.618852 a 250913.42,250913.42 0 0 0 -5.42162,14.671449 l -1.19887,3.247882 a 5.4470151,5.4470151 0 0 0 5.10854,7.335721 h 70.93918 0.20871 13.03988 57.8993 a 5.4470151,5.4470151 0 0 0 5.10853,-7.335721 l -1.19886,-3.247882 a 250913.42,250913.42 0 0 0 -5.42162,-14.671449 l -0.59815,-1.618852 A 469010.48,469010.48 0 0 1 319.6287,48.140347 l -9.35165,-25.311062 a 11.225238,11.225238 0 0 0 -10.53016,-7.335732 h -30.48577 -13.14424 z" />
  <path
     style="fill:none;stroke:none;stroke-width:1.30322px;stroke-linecap:butt;stroke-linejoin:miter;stroke-opacity:1"
     d="m 177.46019,89.6857 -5.97397,16.2903 h 169.51332 l -6.01978,-16.2903 z"
     id="path1" />
  <path
     style="fill:none;stroke:none;stroke-width:1.30322px;stroke-linecap:butt;stroke-linejoin:miter;stroke-opacity:1"
     d="m 142.2095,185.79848 -5.97396,16.2903 h 101.53949 l 5.03216,-16.2903 z"
     id="path2" />
  <path
     style="fill:none;stroke:none;stroke-width:1.30322px;stroke-linecap:butt;stroke-linejoin:miter;stroke-opacity:1"
     d="m 345.47682,430.153 5.09072,16.2903 H 466.80393 L 460.7867,430.153 Z"
     id="path5" />
</svg>
